<svg width="2999" height="1267" viewBox="0 0 2999 1267" fill="none" xmlns="http://www.w3.org/2000/svg">
<rect width="2999" height="1267" fill="#E3FE97"/>
<path d="M1469.76 353.681C1469.76 353.411 1469.87 353.153 1470.07 352.965L1528.92 295.653C1529.56 295.036 1530.62 295.485 1530.62 296.369V912.843C1530.62 913.108 1530.52 913.363 1530.33 913.551L1471.47 972.295C1470.84 972.924 1469.76 972.478 1469.76 971.587V353.681Z" fill="#1C3A3A"/>
<path d="M1599.14 531.459C1599.14 531.189 1599.25 530.931 1599.44 530.743L1658.3 473.431C1658.94 472.814 1660 473.263 1660 474.147V665.437C1660 665.702 1659.89 665.957 1659.71 666.144L1600.85 724.889C1600.22 725.518 1599.14 725.071 1599.14 724.181V531.459Z" fill="#1C3A3A"/>
<path d="M1400.86 531.459C1400.86 531.189 1400.75 530.931 1400.56 530.743L1341.7 473.431C1341.06 472.814 1340 473.263 1340 474.147V665.437C1340 665.702 1340.11 665.957 1340.29 666.144L1399.15 724.889C1399.78 725.518 1400.86 725.071 1400.86 724.181V531.459Z" fill="#1C3A3A"/>
</svg>
